<svg width="20" height="19" viewBox="0 0 20 19" fill="none" xmlns="http://www.w3.org/2000/svg">
<g id="Gmail">
<g id="iconfinder_40-google-plus_104464">
<path id="Path" d="M19.5614 8.08053H16.3901V5.26265C16.3901 5.04765 16.1938 4.8728 15.9523 4.8728H15.0493C14.8062 4.8728 14.6099 5.04765 14.6099 5.26265V8.08053H11.4386C11.1971 8.08053 11 8.25576 11 8.47113V9.27372C11 9.4891 11.1971 9.66357 11.4386 9.66357H14.6099V12.483C14.6099 12.6983 14.8062 12.8728 15.0493 12.8728H15.9523C16.1938 12.8728 16.3901 12.6983 16.3901 12.483V9.6632H19.5614C19.8029 9.6632 20 9.48872 20 9.27335V8.47076C20 8.25538 19.8029 8.08053 19.5614 8.08053Z" fill="black"/>
<path id="Shape" fill-rule="evenodd" clip-rule="evenodd" d="M8.73118 10.8305C8.14507 10.3804 7.61238 9.72036 7.6031 9.51765C7.6031 9.14841 7.63352 8.97184 8.39732 8.32668C9.3848 7.48846 9.92862 6.38639 9.92862 5.22197C9.92862 4.16615 9.63112 3.22818 9.12476 2.56935H9.51761C9.59885 2.56935 9.6786 2.542 9.74352 2.49052L10.8397 1.62937C10.9758 1.52359 11.033 1.33495 10.981 1.1624C10.9287 0.99025 10.7818 0.872803 10.6145 0.872803H5.71197C5.17557 0.872803 4.63064 0.975368 4.09572 1.17487C2.3092 1.84295 1.05982 3.49365 1.05982 5.18819C1.05982 7.58902 2.77512 9.40864 5.06799 9.46576C5.02311 9.65601 5.00048 9.84344 5.00048 10.0273C5.00048 10.3973 5.08691 10.7476 5.26497 11.0863H5.20191C3.01624 11.0863 1.0435 12.2491 0.294539 13.9794C0.0994161 14.4295 0 14.8844 0 15.3337C0 15.7705 0.103497 16.1908 0.306409 16.5858C0.777152 17.4988 1.78801 18.2071 3.15423 18.5812C3.85942 18.7743 4.61728 18.8728 5.40408 18.8728C6.11112 18.8728 6.78515 18.7739 7.40835 18.5784C9.35142 17.9666 10.6078 16.4157 10.6078 14.6254C10.6075 12.9075 10.0982 11.8791 8.73118 10.8305ZM2.53956 14.763C2.53956 13.5133 4.00372 12.4172 5.67265 12.4172H5.71754C6.0807 12.4221 6.43497 12.48 6.76883 12.591C6.87568 12.6708 6.97899 12.7472 7.07845 12.8207L7.07846 12.8208L7.10009 12.8367L7.10244 12.8385C7.8742 13.4086 8.38411 13.7854 8.52604 14.3897C8.55943 14.5421 8.57612 14.6946 8.57612 14.8422C8.57612 16.3984 7.50591 17.1871 5.39406 17.1871C3.79339 17.1871 2.53956 16.1228 2.53956 14.763ZM5.04425 2.46156C4.66069 2.46156 4.31904 2.6321 4.05825 2.95508C3.65465 3.45423 3.48401 4.24459 3.59048 5.12383C3.78004 6.6965 4.83911 8.05559 5.90042 8.09098H5.91785H5.9186C6.31774 8.09098 6.65457 7.92044 6.91609 7.59666C7.32489 7.09147 7.50591 6.26251 7.39871 5.38085C7.20804 3.80617 6.17122 2.49695 5.08766 2.46236L5.04425 2.46156Z" fill="black"/>
</g>
</g>
</svg>
