<svg width="21" height="19" viewBox="0 0 21 19" fill="none" xmlns="http://www.w3.org/2000/svg">
<g id="Twitter">
<g id="iconfinder_03-twitter_104501">
<path id="Path" d="M21 3.00354C20.228 3.36548 19.3972 3.60963 18.5254 3.71888C19.4155 3.15686 20.098 2.26662 20.4198 1.20462C19.5873 1.72573 18.6657 2.10386 17.6839 2.30798C16.8983 1.42493 15.7785 0.872803 14.5392 0.872803C12.1602 0.872803 10.2312 2.90732 10.2312 5.41709C10.2312 5.77274 10.2692 6.11939 10.3429 6.45256C6.76213 6.26282 3.58717 4.45401 1.46215 1.7046C1.09129 2.37543 0.878996 3.15596 0.878996 3.98955C0.878996 5.56591 1.63949 6.95703 2.79557 7.77174C2.08964 7.74791 1.42507 7.54333 0.844041 7.20297C0.843615 7.22186 0.843615 7.24119 0.843615 7.26052C0.843615 9.46185 2.32879 11.2981 4.29992 11.7162C3.93843 11.8196 3.55776 11.8754 3.16473 11.8754C2.88679 11.8754 2.61695 11.8471 2.35394 11.7936C2.90256 13.5988 4.49345 14.913 6.37848 14.9494C4.90396 16.1684 3.04665 16.8949 1.02777 16.8949C0.680348 16.8949 0.33719 16.8734 0 16.8311C1.90719 18.121 4.17161 18.8728 6.60441 18.8728C14.5294 18.8728 18.8626 11.9487 18.8626 5.94359C18.8626 5.74666 18.8588 5.55018 18.8507 5.35504C19.6922 4.71569 20.4228 3.91492 21 3.00354Z" fill="black"/>
</g>
</g>
</svg>
