<svg width="46" height="46" viewBox="0 0 46 46" fill="none" xmlns="http://www.w3.org/2000/svg">
<rect width="46" height="46" rx="23" fill="#D72130"/>
<path d="M23.1488 13.713L23.5001 13.1015L23.1488 13.713C23.1575 13.7179 23.1647 13.725 23.1698 13.7336C23.1699 13.7338 23.17 13.7339 23.1701 13.7341L31.5266 28.2075C31.5267 28.2076 31.5268 28.2078 31.5268 28.2079C31.5318 28.2166 31.5344 28.2265 31.5344 28.2366C31.5343 28.2468 31.5317 28.2568 31.5266 28.2656C31.5215 28.2745 31.5141 28.2818 31.5053 28.2869C31.4966 28.292 31.4868 28.2947 31.4768 28.2948H14.7628C14.7528 28.2947 14.7429 28.292 14.7343 28.2869C14.7254 28.2818 14.7181 28.2745 14.713 28.2656C14.7079 28.2568 14.7052 28.2468 14.7052 28.2366C14.7052 28.2265 14.7078 28.2166 14.7127 28.2079C14.7128 28.2078 14.7129 28.2076 14.7129 28.2075L23.0694 13.7341C23.0696 13.7339 23.0697 13.7338 23.0698 13.7336C23.0749 13.725 23.0821 13.7179 23.0908 13.713C23.0996 13.7079 23.1096 13.7052 23.1198 13.7052C23.13 13.7052 23.14 13.7079 23.1488 13.713Z" fill="white" stroke="white" stroke-width="1.41044"/>
<path d="M22.7485 25.7717L22.7491 25.7567V25.7417C22.7491 25.6685 22.7708 25.5969 22.8115 25.5361C22.8522 25.4752 22.91 25.4278 22.9776 25.3998C23.0452 25.3717 23.1197 25.3644 23.1915 25.3787C23.2632 25.393 23.3292 25.4282 23.381 25.48L23.8796 24.9813L23.381 25.48C23.4327 25.5318 23.468 25.5977 23.4823 25.6695C23.4965 25.7413 23.4892 25.8157 23.4612 25.8833C23.4332 25.951 23.3857 26.0088 23.3249 26.0495C23.264 26.0901 23.1924 26.1118 23.1192 26.1118H23.1042L23.0892 26.1125C23.044 26.1144 22.9988 26.1069 22.9566 26.0905C22.9144 26.074 22.876 26.049 22.844 26.017C22.812 25.9849 22.7869 25.9466 22.7705 25.9044C22.754 25.8622 22.7466 25.817 22.7485 25.7717ZM23.105 23.3661L22.904 19.3999H23.3073L23.1142 23.3661H23.105Z" fill="#D72130" stroke="#D72130" stroke-width="1.41044"/>
</svg>
