<svg width="34" height="34" viewBox="0 0 34 34" fill="none" xmlns="http://www.w3.org/2000/svg">
  <g id="Group 4">
    <path id="Oval" fill-rule="evenodd" clip-rule="evenodd" d="M16.7988 33C25.6354 33 32.7988 25.8366 32.7988 17C32.7988 8.16344 25.6354 1 16.7988 1C7.96227 1 0.798828 8.16344 0.798828 17C0.798828 25.8366 7.96227 33 16.7988 33Z" stroke="black"/>
    <g transform="translate(9 9)">
      <circle cx="6" cy="6" r="6" fill="white"/>
      <svg width="16" height="16" viewBox="0 0 16 16" fill="none" xmlns="http://www.w3.org/2000/svg">
        <g id="iconfinder_Google_1298745 1" clip-path="url(#clip0_29041_7097)">
          <g id="x31  stroke">
            <g id="Google">
              <path id="Vector" fill-rule="evenodd" clip-rule="evenodd" d="M3.44827 8.00103C3.44827 7.48141 3.53452 6.98316 3.68865 6.51591L0.992398 4.45703C0.466898 5.52391 0.170898 6.72616 0.170898 8.00103C0.170898 9.27491 0.466648 10.4763 0.991273 11.5425L3.68602 9.47966C3.5334 9.01453 3.44827 8.51816 3.44827 8.00103Z" fill="black"/>
              <path id="Vector_2" fill-rule="evenodd" clip-rule="evenodd" d="M8.18206 3.27275C9.31094 3.27275 10.3306 3.67275 11.1317 4.32725L13.4622 2C12.0421 0.763625 10.2213 0 8.18206 0C5.01606 0 2.29506 1.8105 0.992188 4.456L3.68831 6.51487C4.30956 4.62912 6.08044 3.27275 8.18206 3.27275Z" fill="black"/>
              <path id="Vector_3" fill-rule="evenodd" clip-rule="evenodd" d="M8.18206 12.7265C6.08056 12.7265 4.30969 11.3701 3.68844 9.48438L0.992188 11.5429C2.29506 14.1888 5.01606 15.9993 8.18206 15.9993C10.1361 15.9993 12.0017 15.3054 13.4018 14.0054L10.8426 12.0269C10.1204 12.4818 9.21106 12.7265 8.18206 12.7265Z" fill="black"/>
              <path id="Vector_4" fill-rule="evenodd" clip-rule="evenodd" d="M15.8293 7.99942C15.8293 7.52667 15.7564 7.01755 15.6471 6.54492H8.18213V9.6358H12.4791C12.2643 10.6897 11.6795 11.4998 10.8426 12.027L13.4019 14.0055C14.8726 12.6405 15.8293 10.607 15.8293 7.99942Z" fill="black"/>
            </g>
          </g>
        </g>
        <defs>
          <clipPath id="clip0_29041_7097">
            <rect width="16" height="16" fill="white"/>
          </clipPath>
        </defs>
      </svg>
    </g>
  </g>
</svg>



       

