<svg width="10" height="10" viewBox="0 0 10 10" fill="none" xmlns="http://www.w3.org/2000/svg">
<path id="Combined Shape" fill-rule="evenodd" clip-rule="evenodd" d="M3.58579 4.99999L0.292893 1.7071C-0.0976311 1.31657 -0.0976311 0.68341 0.292893 0.292886C0.683418 -0.0976387 1.31658 -0.0976387 1.70711 0.292886L5 3.58578L8.29289 0.292886C8.68342 -0.0976387 9.31658 -0.0976387 9.70711 0.292886C10.0976 0.68341 10.0976 1.31657 9.70711 1.7071L6.41421 4.99999L9.70711 8.29289C10.0976 8.68341 10.0976 9.31658 9.70711 9.7071C9.31658 10.0976 8.68342 10.0976 8.29289 9.7071L5 6.41421L1.70711 9.7071C1.31658 10.0976 0.683417 10.0976 0.292893 9.7071C-0.0976305 9.31658 -0.0976305 8.68341 0.292893 8.29289L3.58579 4.99999Z" fill="#E1464E"/>
</svg>
