<svg width="86" height="86" viewBox="0 0 86 86" fill="none" xmlns="http://www.w3.org/2000/svg">
<g filter="url(#filter0_d_0_11073)">
<path fill-rule="evenodd" clip-rule="evenodd" d="M12 43C12 60.1208 25.8792 74 43 74C60.1208 74 74 60.1208 74 43C74 25.8792 60.1208 12 43 12C25.8792 12 12 25.8792 12 43Z" fill="white" fill-opacity="0.9"/>
<path fill-rule="evenodd" clip-rule="evenodd" d="M12 43C12 60.1208 25.8792 74 43 74C60.1208 74 74 60.1208 74 43C74 25.8792 60.1208 12 43 12C25.8792 12 12 25.8792 12 43Z" stroke="white"/>
</g>
<path fill-rule="evenodd" clip-rule="evenodd" d="M43.22 66.4393C56.0441 66.4393 66.44 56.0433 66.44 43.2193C66.44 30.3952 56.0441 19.9993 43.22 19.9993C30.3959 19.9993 20 30.3952 20 43.2193C20 56.0433 30.3959 66.4393 43.22 66.4393Z" fill="#3A465A"/>
<path d="M42.4559 46.5193V47.9993H36.0559V46.5193H38.3999V39.7753C38.3999 39.5086 38.4079 39.2339 38.4239 38.9513L36.7599 40.3433C36.6639 40.4179 36.5679 40.4659 36.4719 40.4873C36.3812 40.5033 36.2932 40.5033 36.2079 40.4873C36.1279 40.4713 36.0559 40.4446 35.9919 40.4073C35.9279 40.3646 35.8799 40.3193 35.8479 40.2713L35.2239 39.4153L38.7519 36.4153H40.3759V46.5193H42.4559ZM52.4229 42.2153C52.4229 43.2233 52.3135 44.1006 52.0949 44.8473C51.8815 45.5886 51.5829 46.2019 51.1989 46.6873C50.8202 47.1726 50.3695 47.5353 49.8469 47.7753C49.3295 48.0099 48.7695 48.1273 48.1669 48.1273C47.5642 48.1273 47.0042 48.0099 46.4869 47.7753C45.9749 47.5353 45.5295 47.1726 45.1509 46.6873C44.7722 46.2019 44.4762 45.5886 44.2629 44.8473C44.0495 44.1006 43.9429 43.2233 43.9429 42.2153C43.9429 41.2019 44.0495 40.3246 44.2629 39.5833C44.4762 38.8419 44.7722 38.2286 45.1509 37.7433C45.5295 37.2579 45.9749 36.8979 46.4869 36.6633C47.0042 36.4233 47.5642 36.3033 48.1669 36.3033C48.7695 36.3033 49.3295 36.4233 49.8469 36.6633C50.3695 36.8979 50.8202 37.2579 51.1989 37.7433C51.5829 38.2286 51.8815 38.8419 52.0949 39.5833C52.3135 40.3246 52.4229 41.2019 52.4229 42.2153ZM50.3829 42.2153C50.3829 41.3779 50.3215 40.6846 50.1989 40.1353C50.0762 39.5859 49.9109 39.1486 49.7029 38.8233C49.5002 38.4979 49.2655 38.2713 48.9989 38.1433C48.7322 38.0099 48.4549 37.9433 48.1669 37.9433C47.8842 37.9433 47.6095 38.0099 47.3429 38.1433C47.0815 38.2713 46.8495 38.4979 46.6469 38.8233C46.4442 39.1486 46.2815 39.5859 46.1589 40.1353C46.0415 40.6846 45.9829 41.3779 45.9829 42.2153C45.9829 43.0526 46.0415 43.7459 46.1589 44.2953C46.2815 44.8446 46.4442 45.2819 46.6469 45.6073C46.8495 45.9326 47.0815 46.1619 47.3429 46.2953C47.6095 46.4233 47.8842 46.4873 48.1669 46.4873C48.4549 46.4873 48.7322 46.4233 48.9989 46.2953C49.2655 46.1619 49.5002 45.9326 49.7029 45.6073C49.9109 45.2819 50.0762 44.8446 50.1989 44.2953C50.3215 43.7459 50.3829 43.0526 50.3829 42.2153Z" fill="#F9F9F9"/>
<defs>
<filter id="filter0_d_0_11073" x="11" y="9" width="68" height="68" filterUnits="userSpaceOnUse" color-interpolation-filters="sRGB">
<feFlood flood-opacity="0" result="BackgroundImageFix"/>
<feColorMatrix in="SourceAlpha" type="matrix" values="0 0 0 0 0 0 0 0 0 0 0 0 0 0 0 0 0 0 127 0" result="hardAlpha"/>
<feOffset dx="2"/>
<feGaussianBlur stdDeviation="1.5"/>
<feColorMatrix type="matrix" values="0 0 0 0 0 0 0 0 0 0 0 0 0 0 0 0 0 0 0.198087 0"/>
<feBlend mode="normal" in2="BackgroundImageFix" result="effect1_dropShadow_0_11073"/>
<feBlend mode="normal" in="SourceGraphic" in2="effect1_dropShadow_0_11073" result="shape"/>
</filter>
</defs>
</svg>
