<svg width="81" height="81" viewBox="0 0 81 81" fill="none" xmlns="http://www.w3.org/2000/svg">
<g id="Group 25.3">
<g id="Group 23">
<rect id="Rectangle 6" width="81" height="81" rx="40.5" fill="#D72130"/>
<g id="Group 4">
<path id="Rectangle 2" d="M29.5742 30.302C29.5742 29.7497 30.0219 29.302 30.5742 29.302H50.6305C51.1828 29.302 51.6305 29.7497 51.6305 30.302V53.6601C51.6305 55.8692 49.8396 57.6601 47.6305 57.6601H33.5742C31.3651 57.6601 29.5742 55.8692 29.5742 53.6601V30.302Z" fill="white"/>
<rect id="Rectangle 3" x="28" y="26.1506" width="25.2072" height="3.1509" rx="1" fill="white"/>
<g id="Group 3">
<rect id="Rectangle 4" x="35.0898" y="23" width="11.0281" height="3.1509" rx="1" fill="white"/>
<rect id="Rectangle 4.1" x="36.6641" y="24.5757" width="7.87724" height="1.57545" fill="#D72130"/>
</g>
<g id="Group 2">
<rect id="Rectangle 5" x="32.7266" y="31.665" width="1.57545" height="22.0563" rx="0.787724" fill="#D72130"/>
<rect id="Rectangle 5.1" x="39.8164" y="31.665" width="1.57545" height="22.0563" rx="0.787724" fill="#D72130"/>
<rect id="Rectangle 5.2" x="46.9062" y="31.665" width="1.57545" height="22.0563" rx="0.787724" fill="#D72130"/>
</g>
</g>
</g>
</g>
</svg>
