<svg xmlns="http://www.w3.org/2000/svg" width="26" height="27" viewBox="0 0 26 27" fill="none">
<path fill-rule="evenodd" clip-rule="evenodd" d="M20.1347 3.68219L20.9823 5.2562L5.02857 13.8467L19.6349 21.5556L18.8005 23.1366L1.22852 13.8625L20.1347 3.68219Z" fill="#B2B2B2"/>
<path fill-rule="evenodd" clip-rule="evenodd" d="M22.3469 5.36294C23.3342 5.36294 24.1346 4.56257 24.1346 3.57525C24.1346 2.58794 23.3342 1.78757 22.3469 1.78757C21.3595 1.78757 20.5592 2.58794 20.5592 3.57525C20.5592 4.56257 21.3595 5.36294 22.3469 5.36294ZM22.3469 7.15063C24.3215 7.15063 25.9222 5.54988 25.9222 3.57525C25.9222 1.60063 24.3215 -0.00012207 22.3469 -0.00012207C20.3722 -0.00012207 18.7715 1.60063 18.7715 3.57525C18.7715 5.54988 20.3722 7.15063 22.3469 7.15063Z" fill="#B2B2B2"/>
<path fill-rule="evenodd" clip-rule="evenodd" d="M21.4523 25.0275C22.4396 25.0275 23.24 24.2271 23.24 23.2398C23.24 22.2525 22.4396 21.4521 21.4523 21.4521C20.465 21.4521 19.6646 22.2525 19.6646 23.2398C19.6646 24.2271 20.465 25.0275 21.4523 25.0275ZM21.4523 26.8152C23.427 26.8152 25.0277 25.2145 25.0277 23.2398C25.0277 21.2652 23.427 19.6645 21.4523 19.6645C19.4777 19.6645 17.877 21.2652 17.877 23.2398C17.877 25.2145 19.4777 26.8152 21.4523 26.8152Z" fill="#B2B2B2"/>
<path fill-rule="evenodd" clip-rule="evenodd" d="M3.57538 15.1952C4.56269 15.1952 5.36307 14.3949 5.36307 13.4075C5.36307 12.4202 4.56269 11.6199 3.57538 11.6199C2.58806 11.6199 1.78769 12.4202 1.78769 13.4075C1.78769 14.3949 2.58806 15.1952 3.57538 15.1952ZM3.57538 16.9829C5.55 16.9829 7.15075 15.3822 7.15075 13.4075C7.15075 11.4329 5.55 9.83217 3.57538 9.83217C1.60075 9.83217 0 11.4329 0 13.4075C0 15.3822 1.60075 16.9829 3.57538 16.9829Z" fill="#B2B2B2"/>
<circle cx="3.5748" cy="13.4075" r="1.78769" fill="white"/>
</svg>

